<svg xmlns="http://www.w3.org/2000/svg" xmlns:xlink="http://www.w3.org/1999/xlink" width="1920" zoomAndPan="magnify" viewBox="0 0 1440 809.999993" height="1080" preserveAspectRatio="xMidYMid meet" version="1.0"><defs><clipPath id="b197f62dcd"><path d="M 0 0 L 243 0 L 243 810 L 0 810 Z M 0 0 " clip-rule="nonzero"/></clipPath><clipPath id="9b51e24514"><rect x="0" width="243" y="0" height="810"/></clipPath><clipPath id="0492a23945"><path d="M 0 0 L 243 0 L 243 810 L 0 810 Z M 0 0 " clip-rule="nonzero"/></clipPath><clipPath id="2ba3db0f95"><rect x="0" width="243" y="0" height="810"/></clipPath><clipPath id="9c9e4ee7d8"><path d="M 0 0 L 243 0 L 243 810 L 0 810 Z M 0 0 " clip-rule="nonzero"/></clipPath><clipPath id="75a693d0ec"><rect x="0" width="243" y="0" height="810"/></clipPath><clipPath id="666c95f78c"><path d="M 0 0 L 243 0 L 243 810 L 0 810 Z M 0 0 " clip-rule="nonzero"/></clipPath><clipPath id="480f76a3e8"><rect x="0" width="243" y="0" height="810"/></clipPath><clipPath id="304745f1a2"><path d="M 0 0 L 243 0 L 243 810 L 0 810 Z M 0 0 " clip-rule="nonzero"/></clipPath><clipPath id="f48e380612"><rect x="0" width="243" y="0" height="810"/></clipPath><clipPath id="04e26f48c5"><path d="M 0 0 L 225 0 L 225 810 L 0 810 Z M 0 0 " clip-rule="nonzero"/></clipPath><clipPath id="afbea2a63a"><rect x="0" width="225" y="0" height="810"/></clipPath></defs><g transform="matrix(1, 0, 0, 1, 0, 0.000000000000039746)"><g clip-path="url(#9b51e24514)"><g clip-path="url(#b197f62dcd)"><rect x="-316.8" width="2073.6" fill="#271669" height="1166.39999" y="-178.199998" fill-opacity="1"/></g></g></g><g transform="matrix(1, 0, 0, 1, 243, 0.000000000000039746)"><g clip-path="url(#2ba3db0f95)"><g clip-path="url(#0492a23945)"><rect x="-559.8" width="2073.6" fill="#5a5b9b" height="1166.39999" y="-178.199998" fill-opacity="1"/></g></g></g><g transform="matrix(1, 0, 0, 1, 486, 0.000000000000039746)"><g clip-path="url(#75a693d0ec)"><g clip-path="url(#9c9e4ee7d8)"><rect x="-802.8" width="2073.6" fill="#817197" height="1166.39999" y="-178.199998" fill-opacity="1"/></g></g></g><g transform="matrix(1, 0, 0, 1, 729, 0.000000000000039746)"><g clip-path="url(#480f76a3e8)"><g clip-path="url(#666c95f78c)"><rect x="-1045.8" width="2073.6" fill="#a29fb8" height="1166.39999" y="-178.199998" fill-opacity="1"/></g></g></g><g transform="matrix(1, 0, 0, 1, 972, 0.000000000000039746)"><g clip-path="url(#f48e380612)"><g clip-path="url(#304745f1a2)"><rect x="-1288.8" width="2073.6" fill="#f5e7eb" height="1166.39999" y="-178.199998" fill-opacity="1"/></g></g></g><g transform="matrix(1, 0, 0, 1, 1215, 0.000000000000039746)"><g clip-path="url(#afbea2a63a)"><g clip-path="url(#04e26f48c5)"><rect x="-1531.8" width="2073.6" fill="#ffffff" height="1166.39999" y="-178.199998" fill-opacity="1"/></g></g></g></svg>