<svg xmlns="http://www.w3.org/2000/svg" xmlns:xlink="http://www.w3.org/1999/xlink" width="2006" zoomAndPan="magnify" viewBox="0 0 1504.5 557.249982" height="743" preserveAspectRatio="xMidYMid meet" version="1.0"><defs><g/><clipPath id="2b0f23b794"><path d="M 40 39 L 504 39 L 504 495 L 40 495 Z M 40 39 " clip-rule="nonzero"/></clipPath><clipPath id="b71ee5143b"><path d="M 0.722656 87.671875 L 442.257812 -0.117188 L 531.261719 447.550781 L 89.726562 535.339844 Z M 0.722656 87.671875 " clip-rule="nonzero"/></clipPath><clipPath id="00c7cac3c6"><path d="M 0.722656 87.671875 L 442.257812 -0.117188 L 531.261719 447.550781 L 89.726562 535.339844 Z M 0.722656 87.671875 " clip-rule="nonzero"/></clipPath><clipPath id="5f7fb95286"><path d="M 54 54 L 481 54 L 481 481 L 54 481 Z M 54 54 " clip-rule="nonzero"/></clipPath><clipPath id="b0259013bc"><path d="M 0.722656 87.671875 L 442.257812 -0.117188 L 531.261719 447.550781 L 89.726562 535.339844 Z M 0.722656 87.671875 " clip-rule="nonzero"/></clipPath><clipPath id="06f8d752ae"><path d="M 0.722656 87.671875 L 442.257812 -0.117188 L 531.261719 447.550781 L 89.726562 535.339844 Z M 0.722656 87.671875 " clip-rule="nonzero"/></clipPath><clipPath id="46468c74ff"><path d="M 335 103 L 432 103 L 432 196 L 335 196 Z M 335 103 " clip-rule="nonzero"/></clipPath><clipPath id="1c0657d1af"><path d="M 0.722656 87.671875 L 442.257812 -0.117188 L 531.261719 447.550781 L 89.726562 535.339844 Z M 0.722656 87.671875 " clip-rule="nonzero"/></clipPath><clipPath id="17642f301e"><path d="M 0.722656 87.671875 L 442.257812 -0.117188 L 531.261719 447.550781 L 89.726562 535.339844 Z M 0.722656 87.671875 " clip-rule="nonzero"/></clipPath><clipPath id="5adfbe7727"><path d="M 283 220 L 352 220 L 352 290 L 283 290 Z M 283 220 " clip-rule="nonzero"/></clipPath><clipPath id="c4f10e7708"><path d="M 0.722656 87.671875 L 442.257812 -0.117188 L 531.261719 447.550781 L 89.726562 535.339844 Z M 0.722656 87.671875 " clip-rule="nonzero"/></clipPath><clipPath id="b53e591728"><path d="M 0.722656 87.671875 L 442.257812 -0.117188 L 531.261719 447.550781 L 89.726562 535.339844 Z M 0.722656 87.671875 " clip-rule="nonzero"/></clipPath><clipPath id="0a8f4a3683"><path d="M 365 131 L 403 131 L 403 169 L 365 169 Z M 365 131 " clip-rule="nonzero"/></clipPath><clipPath id="dc85fb3146"><path d="M 0.722656 87.671875 L 442.257812 -0.117188 L 531.261719 447.550781 L 89.726562 535.339844 Z M 0.722656 87.671875 " clip-rule="nonzero"/></clipPath><clipPath id="6aac7df267"><path d="M 0.722656 87.671875 L 442.257812 -0.117188 L 531.261719 447.550781 L 89.726562 535.339844 Z M 0.722656 87.671875 " clip-rule="nonzero"/></clipPath><clipPath id="afcf981de1"><path d="M 310 248 L 326 248 L 326 262 L 310 262 Z M 310 248 " clip-rule="nonzero"/></clipPath><clipPath id="680845ff05"><path d="M 0.722656 87.671875 L 442.257812 -0.117188 L 531.261719 447.550781 L 89.726562 535.339844 Z M 0.722656 87.671875 " clip-rule="nonzero"/></clipPath><clipPath id="470fded6c7"><path d="M 0.722656 87.671875 L 442.257812 -0.117188 L 531.261719 447.550781 L 89.726562 535.339844 Z M 0.722656 87.671875 " clip-rule="nonzero"/></clipPath><clipPath id="5eb9b33559"><rect x="0" width="1289" y="0" height="536"/></clipPath></defs><g transform="matrix(1, 0, 0, 1, 36, 0)"><g clip-path="url(#5eb9b33559)"><g clip-path="url(#2b0f23b794)"><g clip-path="url(#b71ee5143b)"><g clip-path="url(#00c7cac3c6)"><path fill="#a29fb8" d="M 260.230469 56.640625 C 230.429688 75.152344 215.765625 96.820312 208.175781 106.460938 C 201.515625 114.917969 170.371094 165.894531 177.425781 222.988281 C 188.671875 314.039062 252.328125 347.757812 272.578125 358.480469 C 337.699219 392.960938 422.121094 376.585938 472.546875 326.082031 C 484.152344 314.457031 496.730469 298.265625 502.097656 307.105469 C 503.980469 310.207031 505.953125 313.460938 490.796875 351.046875 C 472.414062 396.632812 426.71875 446.953125 382.125 467.65625 C 371.75 472.472656 323.6875 499.042969 251.816406 493.203125 C 209.542969 489.769531 158.253906 469.285156 122.925781 439.378906 C 25.390625 356.824219 29.066406 238.835938 59.492188 175.304688 C 61.496094 171.121094 99.976562 69.875 219.671875 44.167969 C 246.710938 38.363281 267.160156 39.527344 268.195312 39.972656 C 268.878906 40.269531 275.050781 42.9375 271.472656 48.714844 C 270.738281 49.902344 261.15625 56.046875 260.230469 56.640625 Z M 260.230469 56.640625 " fill-opacity="1" fill-rule="evenodd"/></g></g></g><g clip-path="url(#5f7fb95286)"><g clip-path="url(#b0259013bc)"><g clip-path="url(#06f8d752ae)"><path fill="#a29fb8" d="M 402.710938 382.445312 C 461.152344 363.800781 468.914062 342.234375 476.121094 340.316406 C 476.570312 340.195312 481.304688 338.9375 480.292969 344.359375 C 479.917969 346.363281 478.617188 348.078125 477.671875 349.882812 C 441.394531 419.34375 395.816406 447.960938 360.960938 462.5 C 223.179688 519.980469 125.128906 425.269531 113.332031 412.253906 C 66.578125 360.675781 59.742188 317.480469 55.957031 290.582031 C 55.15625 284.875 50.96875 255.113281 59.289062 218.628906 C 85.386719 104.1875 185.617188 68.550781 186.246094 68.28125 C 197.695312 63.355469 225.894531 55.160156 226.589844 55.0625 C 234.546875 53.957031 235.210938 59.410156 228.777344 64.230469 C 224.917969 67.121094 208.441406 79.457031 189.933594 110.304688 C 143.949219 186.929688 160.863281 279.0625 213.710938 331.972656 C 298.1875 416.535156 393.316406 384.886719 402.710938 382.445312 Z M 402.710938 382.445312 " fill-opacity="1" fill-rule="evenodd"/></g></g></g><g clip-path="url(#46468c74ff)"><g clip-path="url(#1c0657d1af)"><g clip-path="url(#17642f301e)"><path fill="#a29fb8" d="M 400.5 182.773438 C 400.285156 183.558594 397.796875 192.605469 397.796875 192.605469 C 397.410156 193.183594 394.433594 197.617188 389.375 194.695312 C 384.75 192.027344 376.78125 168.714844 349.488281 164.660156 C 340.453125 163.320312 340.355469 163.640625 338.695312 162.628906 C 335.1875 160.484375 334.121094 154.664062 341.382812 150.53125 C 343.875 149.117188 353.117188 146.265625 360.109375 135.484375 C 369.277344 121.355469 366.851562 102.175781 375.367188 103.296875 C 382.152344 104.1875 380.652344 107.957031 393.734375 122.054688 C 411.421875 141.121094 434.320312 129.894531 431.144531 143.046875 C 429.796875 148.617188 411.515625 150.28125 403.707031 172.679688 C 402.75 175.425781 402.816406 175.347656 400.5 182.773438 Z M 400.5 182.773438 " fill-opacity="1" fill-rule="evenodd"/></g></g></g><g clip-path="url(#5adfbe7727)"><g clip-path="url(#c4f10e7708)"><g clip-path="url(#b53e591728)"><path fill="#a29fb8" d="M 295.578125 249.140625 C 296.441406 248.089844 301.664062 244.160156 304.566406 235.195312 C 305.867188 231.175781 304.984375 231.039062 306.167969 227.039062 C 307.898438 221.1875 311.875 220.945312 312.582031 220.902344 C 312.785156 220.890625 314.640625 219.179688 321.679688 228.789062 C 336.699219 249.277344 347.914062 237.578125 350.828125 246.058594 C 352.855469 251.960938 344.726562 255.742188 343.730469 256.457031 C 327.835938 267.867188 333.171875 287.40625 326.699219 289.5625 C 316.410156 292.988281 317.550781 270.910156 293.421875 266.527344 C 284.089844 264.832031 279.914062 261.722656 287.089844 255.429688 C 291.128906 251.886719 291.492188 252.507812 295.578125 249.140625 Z M 295.578125 249.140625 " fill-opacity="1" fill-rule="evenodd"/></g></g></g><g clip-path="url(#0a8f4a3683)"><g clip-path="url(#dc85fb3146)"><g clip-path="url(#6aac7df267)"><path fill="#a29fb8" d="M 378.625 162.921875 C 368.144531 156.027344 361.230469 155.324219 369.035156 145.5 C 371.457031 142.449219 377.425781 132.011719 377.589844 131.859375 C 380.640625 128.976562 388.046875 135.0625 388.777344 135.660156 C 395.546875 141.21875 400.878906 140.964844 402.179688 144.609375 C 403.921875 149.496094 402.21875 149.417969 399.273438 153.625 C 392.1875 163.75 393.273438 164.351562 392.613281 165.1875 C 387.179688 172.066406 385.324219 168.605469 378.625 162.921875 Z M 378.625 162.921875 " fill-opacity="1" fill-rule="evenodd"/></g></g></g><g clip-path="url(#afcf981de1)"><g clip-path="url(#680845ff05)"><g clip-path="url(#470fded6c7)"><path fill="#a29fb8" d="M 314.484375 250.121094 C 315.785156 250.28125 316.945312 248.8125 318.25 248.972656 C 330.019531 250.441406 324.199219 258.339844 323.65625 259.078125 C 318.941406 265.480469 306.210938 259.78125 312.816406 251.710938 C 313.300781 251.117188 313.996094 250.714844 314.484375 250.121094 Z M 314.484375 250.121094 " fill-opacity="1" fill-rule="evenodd"/></g></g></g><g fill="#ffffff" fill-opacity="1"><g transform="translate(144.808902, 399.05882)"><g><path d="M 89.40625 -106.171875 C 101.9375 -103.285156 112.132812 -99.726562 120 -95.5 C 127.875 -91.269531 133.925781 -86.613281 138.15625 -81.53125 C 142.394531 -76.445312 145.316406 -71.320312 146.921875 -66.15625 C 148.535156 -61 149.34375 -56.050781 149.34375 -51.3125 C 149.34375 -40.976562 146.546875 -31.660156 140.953125 -23.359375 C 135.367188 -15.066406 127.328125 -8.503906 116.828125 -3.671875 C 106.328125 1.148438 93.628906 3.5625 78.734375 3.5625 C 63.328125 3.5625 49.78125 1.234375 38.09375 -3.421875 C 26.414062 -8.078125 17.101562 -13.707031 10.15625 -20.3125 L 33.53125 -57.40625 C 32.675781 -48.59375 33.726562 -40.671875 36.6875 -33.640625 C 39.65625 -26.617188 43.847656 -20.648438 49.265625 -15.734375 C 54.691406 -10.828125 60.875 -7.0625 67.8125 -4.4375 C 74.757812 -1.820312 81.785156 -0.515625 88.890625 -0.515625 C 96.335938 -0.515625 102.390625 -1.695312 107.046875 -4.0625 C 111.703125 -6.4375 115.300781 -9.441406 117.84375 -13.078125 C 120.382812 -16.722656 122.160156 -20.578125 123.171875 -24.640625 C 124.191406 -28.703125 124.703125 -32.425781 124.703125 -35.8125 C 124.703125 -43.425781 122.878906 -49.390625 119.234375 -53.703125 C 115.597656 -58.023438 110.265625 -61.539062 103.234375 -64.25 C 96.210938 -66.96875 87.625 -69.507812 77.46875 -71.875 C 61.039062 -75.769531 48.296875 -80.929688 39.234375 -87.359375 C 30.179688 -93.796875 23.832031 -100.820312 20.1875 -108.4375 C 16.550781 -116.0625 14.734375 -123.515625 14.734375 -130.796875 C 14.734375 -141.296875 17.523438 -150.3125 23.109375 -157.84375 C 28.703125 -165.382812 36.535156 -171.1875 46.609375 -175.25 C 56.679688 -179.3125 68.578125 -181.34375 82.296875 -181.34375 C 97.023438 -181.34375 109.679688 -179.097656 120.265625 -174.609375 C 130.847656 -170.128906 139.523438 -164.671875 146.296875 -158.234375 L 122.171875 -121.15625 C 123.347656 -129.789062 122.625 -137.578125 120 -144.515625 C 117.382812 -151.460938 113.535156 -157.390625 108.453125 -162.296875 C 103.367188 -167.203125 97.484375 -170.96875 90.796875 -173.59375 C 84.109375 -176.21875 77.296875 -177.53125 70.359375 -177.53125 C 62.398438 -177.53125 56.175781 -175.960938 51.6875 -172.828125 C 47.195312 -169.703125 44.101562 -165.769531 42.40625 -161.03125 C 40.71875 -156.289062 39.875 -151.546875 39.875 -146.796875 C 39.875 -137.992188 42.160156 -130.96875 46.734375 -125.71875 C 51.304688 -120.46875 57.359375 -116.40625 64.890625 -113.53125 C 72.429688 -110.65625 80.601562 -108.203125 89.40625 -106.171875 Z M 89.40625 -106.171875 "/></g></g></g><g fill="#ffffff" fill-opacity="1"><g transform="translate(304.312681, 399.05882)"><g><path d="M 109.46875 -181.34375 C 123.1875 -181.34375 135.96875 -179.222656 147.8125 -174.984375 C 159.664062 -170.753906 170.035156 -164.617188 178.921875 -156.578125 C 187.816406 -148.535156 194.757812 -138.800781 199.75 -127.375 C 204.75 -115.945312 207.25 -103.117188 207.25 -88.890625 C 207.25 -74.671875 204.75 -61.84375 199.75 -50.40625 C 194.757812 -38.976562 187.816406 -29.242188 178.921875 -21.203125 C 170.035156 -13.160156 159.664062 -7.019531 147.8125 -2.78125 C 135.96875 1.445312 123.1875 3.5625 109.46875 3.5625 C 95.582031 3.5625 82.710938 1.445312 70.859375 -2.78125 C 59.003906 -7.019531 48.632812 -13.160156 39.75 -21.203125 C 30.863281 -29.242188 23.921875 -38.976562 18.921875 -50.40625 C 13.921875 -61.84375 11.421875 -74.671875 11.421875 -88.890625 C 11.421875 -103.117188 13.921875 -115.945312 18.921875 -127.375 C 23.921875 -138.800781 30.863281 -148.535156 39.75 -156.578125 C 48.632812 -164.617188 59.003906 -170.753906 70.859375 -174.984375 C 82.710938 -179.222656 95.582031 -181.34375 109.46875 -181.34375 Z M 120.140625 -1.015625 C 130.296875 -1.015625 139.140625 -4.019531 146.671875 -10.03125 C 154.210938 -16.039062 160.054688 -24.378906 164.203125 -35.046875 C 168.347656 -45.710938 170.421875 -58.070312 170.421875 -72.125 C 170.421875 -84.832031 168.6875 -97.363281 165.21875 -109.71875 C 161.75 -122.082031 156.796875 -133.300781 150.359375 -143.375 C 143.921875 -153.445312 136.300781 -161.53125 127.5 -167.625 C 118.695312 -173.71875 109.046875 -176.765625 98.546875 -176.765625 C 88.390625 -176.765625 79.539062 -173.800781 72 -167.875 C 64.46875 -161.957031 58.625 -153.664062 54.46875 -143 C 50.320312 -132.332031 48.25 -119.96875 48.25 -105.90625 C 48.25 -93.207031 49.984375 -80.632812 53.453125 -68.1875 C 56.929688 -55.75 61.882812 -44.488281 68.3125 -34.40625 C 74.75 -24.332031 82.367188 -16.25 91.171875 -10.15625 C 99.984375 -4.0625 109.640625 -1.015625 120.140625 -1.015625 Z M 120.140625 -1.015625 "/></g></g></g><g fill="#ffffff" fill-opacity="1"><g transform="translate(522.995425, 399.05882)"><g><path d="M 225.796875 -176.515625 C 220.546875 -175.835938 216.015625 -174.609375 212.203125 -172.828125 C 208.390625 -171.054688 206.484375 -167.882812 206.484375 -163.3125 L 206.484375 -14.484375 C 206.484375 -9.910156 208.390625 -6.734375 212.203125 -4.953125 C 216.015625 -3.171875 220.546875 -1.941406 225.796875 -1.265625 L 225.796875 0 L 152.390625 0 L 152.390625 -1.265625 C 157.640625 -1.941406 162.164062 -3.171875 165.96875 -4.953125 C 169.78125 -6.734375 171.6875 -9.910156 171.6875 -14.484375 L 171.6875 -164.578125 L 100.828125 2.796875 L 28.1875 -142.234375 L 28.1875 -44.953125 C 28.1875 -33.441406 29.078125 -24.59375 30.859375 -18.40625 C 32.640625 -12.226562 35.007812 -7.953125 37.96875 -5.578125 C 40.9375 -3.210938 44.113281 -1.773438 47.5 -1.265625 L 47.5 0 L 3.8125 0 L 3.8125 -1.265625 C 7.363281 -1.773438 10.578125 -2.789062 13.453125 -4.3125 C 16.335938 -5.84375 18.664062 -9.273438 20.4375 -14.609375 C 22.21875 -19.941406 23.109375 -28.363281 23.109375 -39.875 L 23.109375 -152.390625 C 20.742188 -157.296875 18.078125 -161.738281 15.109375 -165.71875 C 12.148438 -169.695312 7.960938 -173.722656 2.546875 -177.796875 L 47.234375 -177.796875 L 114.796875 -42.921875 L 171.6875 -177.796875 L 225.796875 -177.796875 Z M 225.796875 -176.515625 "/></g></g></g><g fill="#ffffff" fill-opacity="1"><g transform="translate(752.599609, 399.05882)"><g><path d="M 139.4375 -177.796875 L 182.875 -177.796875 L 182.875 -176.515625 C 179.488281 -176.179688 176.3125 -175.207031 173.34375 -173.59375 C 170.382812 -171.988281 168.015625 -168.519531 166.234375 -163.1875 C 164.453125 -157.851562 163.5625 -149.425781 163.5625 -137.90625 L 163.5625 -42.15625 C 163.5625 -28.945312 163.726562 -18.660156 164.0625 -11.296875 C 164.40625 -3.929688 164.660156 2.035156 164.828125 6.609375 L 164.328125 7.109375 L 30.734375 -151.625 L 30.734375 -44.953125 C 30.734375 -33.441406 31.617188 -24.59375 33.390625 -18.40625 C 35.171875 -12.226562 37.539062 -7.953125 40.5 -5.578125 C 43.46875 -3.210938 46.644531 -1.773438 50.03125 -1.265625 L 50.03125 0 L 6.34375 0 L 6.34375 -1.265625 C 9.90625 -1.773438 13.125 -2.789062 16 -4.3125 C 18.875 -5.84375 21.203125 -9.273438 22.984375 -14.609375 C 24.765625 -19.941406 25.65625 -28.363281 25.65625 -39.875 L 25.65625 -157.71875 C 21.414062 -162.800781 17.519531 -166.90625 13.96875 -170.03125 C 10.414062 -173.164062 6.609375 -175.753906 2.546875 -177.796875 L 53.59375 -177.796875 C 54.4375 -176.609375 55.492188 -175.207031 56.765625 -173.59375 C 58.035156 -171.988281 59.515625 -169.832031 61.203125 -167.125 L 158.734375 -52.0625 L 158.734375 -132.828125 C 158.734375 -144.347656 157.84375 -153.195312 156.0625 -159.375 C 154.289062 -165.550781 151.960938 -169.867188 149.078125 -172.328125 C 146.203125 -174.785156 142.988281 -176.179688 139.4375 -176.515625 Z M 139.4375 -177.796875 "/></g></g></g><g fill="#ffffff" fill-opacity="1"><g transform="translate(939.280033, 399.05882)"><g><path d="M 96.765625 3.5625 C 91.179688 3.5625 85.085938 2.96875 78.484375 1.78125 C 71.878906 0.59375 65.316406 -1.519531 58.796875 -4.5625 C 52.273438 -7.613281 46.347656 -11.804688 41.015625 -17.140625 C 35.679688 -22.472656 31.363281 -29.242188 28.0625 -37.453125 C 24.757812 -45.671875 23.109375 -55.625 23.109375 -67.3125 L 23.109375 -163.3125 C 23.109375 -167.882812 21.203125 -171.054688 17.390625 -172.828125 C 13.585938 -174.609375 9.0625 -175.835938 3.8125 -176.515625 L 3.8125 -177.796875 L 77.21875 -177.796875 L 77.21875 -176.515625 C 71.96875 -175.835938 67.4375 -174.609375 63.625 -172.828125 C 59.8125 -171.054688 57.90625 -167.882812 57.90625 -163.3125 L 57.90625 -64.265625 C 57.90625 -52.410156 59.425781 -42.671875 62.46875 -35.046875 C 65.519531 -27.429688 69.5 -21.460938 74.40625 -17.140625 C 79.320312 -12.828125 84.53125 -9.820312 90.03125 -8.125 C 95.539062 -6.4375 100.75 -5.59375 105.65625 -5.59375 C 111.582031 -5.59375 117.675781 -6.691406 123.9375 -8.890625 C 130.207031 -11.085938 136.050781 -14.554688 141.46875 -19.296875 C 146.882812 -24.046875 151.285156 -30.144531 154.671875 -37.59375 C 158.054688 -45.039062 159.75 -54.097656 159.75 -64.765625 L 159.75 -137.40625 C 159.75 -147.5625 158.816406 -155.390625 156.953125 -160.890625 C 155.097656 -166.398438 152.5625 -170.335938 149.34375 -172.703125 C 146.125 -175.078125 142.3125 -176.429688 137.90625 -176.765625 L 137.90625 -178.046875 L 184.390625 -178.046875 L 184.390625 -176.765625 C 181.003906 -176.429688 177.828125 -175.5 174.859375 -173.96875 C 171.898438 -172.445312 169.53125 -169.359375 167.75 -164.703125 C 165.976562 -160.046875 165.09375 -152.640625 165.09375 -142.484375 L 165.09375 -67.8125 C 165.09375 -52.40625 162.128906 -39.367188 156.203125 -28.703125 C 150.273438 -18.035156 142.144531 -9.988281 131.8125 -4.5625 C 121.488281 0.851562 109.804688 3.5625 96.765625 3.5625 Z M 96.765625 3.5625 "/></g></g></g><g fill="#ffffff" fill-opacity="1"><g transform="translate(1127.484269, 399.05882)"><g><path d="M 89.40625 -106.171875 C 101.9375 -103.285156 112.132812 -99.726562 120 -95.5 C 127.875 -91.269531 133.925781 -86.613281 138.15625 -81.53125 C 142.394531 -76.445312 145.316406 -71.320312 146.921875 -66.15625 C 148.535156 -61 149.34375 -56.050781 149.34375 -51.3125 C 149.34375 -40.976562 146.546875 -31.660156 140.953125 -23.359375 C 135.367188 -15.066406 127.328125 -8.503906 116.828125 -3.671875 C 106.328125 1.148438 93.628906 3.5625 78.734375 3.5625 C 63.328125 3.5625 49.78125 1.234375 38.09375 -3.421875 C 26.414062 -8.078125 17.101562 -13.707031 10.15625 -20.3125 L 33.53125 -57.40625 C 32.675781 -48.59375 33.726562 -40.671875 36.6875 -33.640625 C 39.65625 -26.617188 43.847656 -20.648438 49.265625 -15.734375 C 54.691406 -10.828125 60.875 -7.0625 67.8125 -4.4375 C 74.757812 -1.820312 81.785156 -0.515625 88.890625 -0.515625 C 96.335938 -0.515625 102.390625 -1.695312 107.046875 -4.0625 C 111.703125 -6.4375 115.300781 -9.441406 117.84375 -13.078125 C 120.382812 -16.722656 122.160156 -20.578125 123.171875 -24.640625 C 124.191406 -28.703125 124.703125 -32.425781 124.703125 -35.8125 C 124.703125 -43.425781 122.878906 -49.390625 119.234375 -53.703125 C 115.597656 -58.023438 110.265625 -61.539062 103.234375 -64.25 C 96.210938 -66.96875 87.625 -69.507812 77.46875 -71.875 C 61.039062 -75.769531 48.296875 -80.929688 39.234375 -87.359375 C 30.179688 -93.796875 23.832031 -100.820312 20.1875 -108.4375 C 16.550781 -116.0625 14.734375 -123.515625 14.734375 -130.796875 C 14.734375 -141.296875 17.523438 -150.3125 23.109375 -157.84375 C 28.703125 -165.382812 36.535156 -171.1875 46.609375 -175.25 C 56.679688 -179.3125 68.578125 -181.34375 82.296875 -181.34375 C 97.023438 -181.34375 109.679688 -179.097656 120.265625 -174.609375 C 130.847656 -170.128906 139.523438 -164.671875 146.296875 -158.234375 L 122.171875 -121.15625 C 123.347656 -129.789062 122.625 -137.578125 120 -144.515625 C 117.382812 -151.460938 113.535156 -157.390625 108.453125 -162.296875 C 103.367188 -167.203125 97.484375 -170.96875 90.796875 -173.59375 C 84.109375 -176.21875 77.296875 -177.53125 70.359375 -177.53125 C 62.398438 -177.53125 56.175781 -175.960938 51.6875 -172.828125 C 47.195312 -169.703125 44.101562 -165.769531 42.40625 -161.03125 C 40.71875 -156.289062 39.875 -151.546875 39.875 -146.796875 C 39.875 -137.992188 42.160156 -130.96875 46.734375 -125.71875 C 51.304688 -120.46875 57.359375 -116.40625 64.890625 -113.53125 C 72.429688 -110.65625 80.601562 -108.203125 89.40625 -106.171875 Z M 89.40625 -106.171875 "/></g></g></g></g></g></svg>