<svg xmlns="http://www.w3.org/2000/svg" xmlns:xlink="http://www.w3.org/1999/xlink" width="2000" zoomAndPan="magnify" viewBox="0 0 1500 1499.999933" height="2000" preserveAspectRatio="xMidYMid meet" version="1.0"><defs><clipPath id="a237c58286"><path d="M 1028 138.832031 L 1374.699219 138.832031 L 1374.699219 562 L 1028 562 Z M 1028 138.832031 " clip-rule="nonzero"/></clipPath><clipPath id="64f2a35768"><path d="M 271 288 L 1234 288 L 1234 1361.332031 L 271 1361.332031 Z M 271 288 " clip-rule="nonzero"/></clipPath></defs><g clip-path="url(#a237c58286)"><path fill="#ffffff" d="M 1033.054688 339.886719 L 1157.832031 383.535156 L 1179.421875 554.765625 C 1179.890625 558.382812 1182.835938 561.160156 1186.484375 561.359375 C 1186.617188 561.359375 1186.785156 561.359375 1186.917969 561.359375 C 1190.367188 561.359375 1193.410156 559.019531 1194.25 555.605469 L 1235.449219 388.855469 L 1368.929688 350.5 C 1372.210938 349.5625 1374.453125 346.546875 1374.386719 343.136719 C 1374.351562 339.722656 1372.007812 336.777344 1368.695312 335.9375 L 1246.664062 304.578125 L 1216.273438 144.957031 C 1215.601562 141.507812 1212.691406 139 1209.210938 138.832031 C 1205.761719 138.699219 1202.582031 140.941406 1201.613281 144.289062 L 1157.164062 298.71875 L 1033.992188 325.363281 C 1030.679688 326.066406 1028.269531 328.910156 1028.035156 332.289062 C 1027.800781 335.671875 1029.875 338.785156 1033.054688 339.886719 Z M 1033.054688 339.886719 " fill-opacity="1" fill-rule="nonzero"/></g><g clip-path="url(#64f2a35768)"><path fill="#ffffff" d="M 271.570312 779.488281 C 271.371094 782.867188 273.414062 785.945312 276.625 787.085938 L 607.414062 902.757812 L 664.347656 1354.441406 C 664.816406 1358.054688 667.761719 1360.832031 671.410156 1361.035156 C 671.542969 1361.035156 671.710938 1361.035156 671.84375 1361.035156 C 675.292969 1361.035156 678.335938 1358.691406 679.171875 1355.277344 L 787.785156 915.84375 L 1227.953125 789.394531 C 1231.367188 788.425781 1233.644531 785.175781 1233.410156 781.628906 C 1233.175781 778.082031 1230.464844 775.167969 1226.949219 774.667969 L 816.433594 715.992188 L 736.242188 294.9375 C 735.570312 291.488281 732.660156 288.980469 729.179688 288.8125 C 725.699219 288.679688 722.550781 290.921875 721.582031 294.269531 L 604.234375 701.902344 L 277.53125 772.59375 C 274.214844 773.296875 271.773438 776.105469 271.570312 779.488281 Z M 271.570312 779.488281 " fill-opacity="1" fill-rule="nonzero"/></g><path fill="#ffffff" d="M 131.164062 428.484375 L 213.132812 457.167969 L 222.335938 591.683594 C 222.605469 595.402344 225.515625 598.378906 229.199219 598.679688 C 229.433594 598.714844 229.632812 598.714844 229.867188 598.714844 C 233.316406 598.714844 236.363281 596.371094 237.199219 592.957031 L 269.832031 460.984375 L 357.992188 435.648438 C 361.273438 434.710938 363.515625 431.695312 363.449219 428.285156 C 363.414062 424.871094 361.070312 421.925781 357.757812 421.085938 L 277.429688 400.4375 L 262.871094 323.957031 C 262.265625 320.742188 259.625 318.265625 256.375 317.863281 C 253.128906 317.464844 249.984375 319.203125 248.613281 322.148438 L 214.003906 396.253906 L 132.066406 413.992188 C 128.753906 414.695312 126.34375 417.539062 126.109375 420.886719 C 125.910156 424.265625 127.984375 427.378906 131.164062 428.484375 Z M 131.164062 428.484375 " fill-opacity="1" fill-rule="nonzero"/></svg>