<svg xmlns="http://www.w3.org/2000/svg" xmlns:xlink="http://www.w3.org/1999/xlink" width="2155" zoomAndPan="magnify" viewBox="0 0 1616.25 524.249967" height="699" preserveAspectRatio="xMidYMid meet" version="1.0"><defs><clipPath id="f23eaf6d9c"><path d="M 0.78125 5 L 551 5 L 551 402.921875 L 0.78125 402.921875 Z M 0.78125 5 " clip-rule="nonzero"/></clipPath><clipPath id="00087a3ce6"><path d="M 217.46875 111 L 767.929688 111 L 767.929688 509.367188 L 217.46875 509.367188 Z M 217.46875 111 " clip-rule="nonzero"/></clipPath><clipPath id="f7d0e21d06"><path d="M 33.757812 125 L 584 125 L 584 523.304688 L 33.757812 523.304688 Z M 33.757812 125 " clip-rule="nonzero"/></clipPath><clipPath id="f120ca1a1e"><path d="M 600.058594 100 L 1150.519531 100 L 1150.519531 497.972656 L 600.058594 497.972656 Z M 600.058594 100 " clip-rule="nonzero"/></clipPath><clipPath id="b578f3bece"><path d="M 841.546875 80 L 1392 80 L 1392 478.429688 L 841.546875 478.429688 Z M 841.546875 80 " clip-rule="nonzero"/></clipPath><clipPath id="4f8b80aaa3"><path d="M 1064.210938 5 L 1614.671875 5 L 1614.671875 402.921875 L 1064.210938 402.921875 Z M 1064.210938 5 " clip-rule="nonzero"/></clipPath><clipPath id="ab83e49ce5"><path d="M 1022 125 L 1572.4375 125 L 1572.4375 523.304688 L 1022 523.304688 Z M 1022 125 " clip-rule="nonzero"/></clipPath></defs><g clip-path="url(#f23eaf6d9c)"><path fill="#f5e7eb" d="M 300.902344 402.949219 C 295.347656 402.949219 289.792969 402.949219 284.234375 402.949219 C 270.945312 399.644531 257.105469 397.734375 244.503906 392.714844 C 225.496094 385.144531 210.574219 371.730469 200.140625 353.230469 C 177.164062 362.832031 153.945312 366.199219 129.800781 361.765625 C 89.3125 354.316406 59.4375 328.144531 51.828125 292.605469 C 48.09375 275.171875 51.261719 258.332031 58.917969 242.46875 C 19.21875 220.238281 13.019531 212.640625 0.882812 171.6875 C 0.882812 166.128906 0.882812 160.574219 0.882812 155.019531 C 1.359375 154.558594 2.175781 154.164062 2.265625 153.636719 C 9.089844 114.964844 34.382812 93.683594 70.136719 83.523438 C 83.550781 79.710938 97.941406 79.316406 111.835938 77.371094 C 121.988281 38.390625 148.675781 16.507812 187.226562 8.230469 C 225.621094 -0.0117188 259.917969 9.171875 289.195312 35.710938 C 312.96875 18.363281 339.066406 10.550781 367.738281 13.066406 C 404.921875 16.332031 435.25 31.683594 451.785156 66.757812 C 457.066406 77.960938 458.222656 91.109375 461.390625 103.851562 C 499.609375 110.050781 522.125 122.535156 538.519531 149.734375 C 544.390625 159.476562 546.886719 171.253906 550.917969 182.101562 C 550.917969 186.960938 550.917969 191.824219 550.917969 196.683594 C 546.949219 218.710938 536.953125 237.445312 519.785156 251.578125 C 549.355469 300.792969 523.671875 350.207031 480.621094 369.679688 C 447.460938 384.675781 414.234375 384.273438 381.476562 368.445312 C 375.808594 365.703125 372.675781 366.601562 368.117188 370.613281 C 359.90625 377.828125 351.484375 385.628906 341.734375 390.0625 C 328.839844 395.929688 314.574219 398.792969 300.902344 402.949219 Z M 300.902344 402.949219 " fill-opacity="1" fill-rule="nonzero"/></g><g clip-path="url(#00087a3ce6)"><path fill="#817197" d="M 517.59375 509.390625 C 512.035156 509.390625 506.480469 509.390625 500.921875 509.390625 C 487.636719 506.085938 473.796875 504.175781 461.191406 499.15625 C 442.183594 491.585938 427.261719 478.171875 416.828125 459.671875 C 393.851562 469.273438 370.632812 472.640625 346.488281 468.207031 C 306 460.757812 276.125 434.589844 268.515625 399.050781 C 264.78125 381.613281 267.949219 364.777344 275.609375 348.910156 C 235.90625 326.679688 229.707031 319.082031 217.570312 278.128906 C 217.570312 272.570312 217.570312 267.015625 217.570312 261.460938 C 218.046875 261 218.863281 260.605469 218.953125 260.078125 C 225.777344 221.40625 251.070312 200.125 286.824219 189.964844 C 300.238281 186.152344 314.628906 185.757812 328.523438 183.8125 C 338.679688 144.832031 365.363281 122.949219 403.914062 114.671875 C 442.308594 106.429688 476.605469 115.613281 505.886719 142.152344 C 529.65625 124.804688 555.753906 116.992188 584.429688 119.507812 C 621.609375 122.773438 651.9375 138.125 668.472656 173.199219 C 673.753906 184.402344 674.910156 197.554688 678.078125 210.292969 C 716.296875 216.492188 738.8125 228.976562 755.207031 256.175781 C 761.078125 265.917969 763.574219 277.695312 767.605469 288.542969 C 767.605469 293.40625 767.605469 298.265625 767.605469 303.125 C 763.640625 325.152344 753.640625 343.886719 736.472656 358.019531 C 766.042969 407.234375 740.359375 456.648438 697.308594 476.121094 C 664.148438 491.117188 630.921875 490.714844 598.164062 474.890625 C 592.496094 472.144531 589.363281 473.046875 584.804688 477.054688 C 576.59375 484.269531 568.171875 492.070312 558.421875 496.507812 C 545.527344 502.371094 531.265625 505.234375 517.59375 509.390625 Z M 517.59375 509.390625 " fill-opacity="1" fill-rule="nonzero"/></g><g clip-path="url(#f7d0e21d06)"><path fill="#ffffff" d="M 333.882812 523.332031 C 328.324219 523.332031 322.773438 523.332031 317.214844 523.332031 C 303.925781 520.027344 290.085938 518.117188 277.480469 513.097656 C 258.476562 505.527344 243.550781 492.113281 233.117188 473.613281 C 210.144531 483.214844 186.921875 486.582031 162.78125 482.144531 C 122.289062 474.699219 92.417969 448.527344 84.808594 412.988281 C 81.070312 395.554688 84.238281 378.714844 91.898438 362.847656 C 52.195312 340.621094 46 333.019531 33.863281 292.066406 C 33.863281 286.511719 33.863281 280.957031 33.863281 275.398438 C 34.339844 274.941406 35.152344 274.542969 35.246094 274.019531 C 42.066406 235.347656 67.363281 214.066406 103.113281 203.90625 C 116.53125 200.09375 130.917969 199.699219 144.8125 197.753906 C 154.96875 158.769531 181.652344 136.890625 220.203125 128.613281 C 258.597656 120.371094 292.898438 129.554688 322.175781 156.09375 C 345.945312 138.742188 372.042969 130.933594 400.71875 133.449219 C 437.902344 136.710938 468.230469 152.0625 484.765625 187.136719 C 490.046875 198.34375 491.203125 211.492188 494.367188 224.234375 C 532.585938 230.429688 555.101562 242.917969 571.496094 270.113281 C 577.367188 279.859375 579.863281 291.636719 583.894531 302.484375 C 583.894531 307.34375 583.894531 312.207031 583.894531 317.066406 C 579.929688 339.09375 569.929688 357.828125 552.761719 371.957031 C 582.335938 421.171875 556.652344 470.589844 513.601562 490.058594 C 480.4375 505.058594 447.214844 504.652344 414.457031 488.828125 C 408.789062 486.085938 405.65625 486.984375 401.09375 490.992188 C 392.882812 498.207031 384.464844 506.007812 374.710938 510.445312 C 361.816406 516.3125 347.554688 519.175781 333.882812 523.332031 Z M 333.882812 523.332031 " fill-opacity="1" fill-rule="nonzero"/></g><g clip-path="url(#f120ca1a1e)"><path fill="#ffffff" d="M 900.183594 497.996094 C 894.625 497.996094 889.070312 497.996094 883.515625 497.996094 C 870.226562 494.691406 856.386719 492.78125 843.78125 487.761719 C 824.773438 480.191406 809.851562 466.777344 799.417969 448.277344 C 776.445312 457.878906 753.222656 461.246094 729.082031 456.8125 C 688.589844 449.363281 658.714844 423.195312 651.109375 387.65625 C 647.371094 370.21875 650.539062 353.382812 658.199219 337.515625 C 618.496094 315.285156 612.296875 307.6875 600.160156 266.734375 C 600.160156 261.175781 600.160156 255.621094 600.160156 250.066406 C 600.640625 249.605469 601.453125 249.210938 601.546875 248.683594 C 608.367188 210.011719 633.664062 188.730469 669.414062 178.570312 C 682.828125 174.757812 697.21875 174.363281 711.113281 172.417969 C 721.269531 133.4375 747.953125 111.554688 786.503906 103.277344 C 824.898438 95.035156 859.195312 104.21875 888.476562 130.757812 C 912.246094 113.410156 938.34375 105.597656 967.019531 108.113281 C 1004.203125 111.378906 1034.527344 126.730469 1051.0625 161.804688 C 1056.34375 173.007812 1057.503906 186.160156 1060.667969 198.898438 C 1098.886719 205.097656 1121.402344 217.582031 1137.796875 244.78125 C 1143.667969 254.523438 1146.164062 266.300781 1150.195312 277.148438 C 1150.195312 282.011719 1150.195312 286.871094 1150.195312 291.730469 C 1146.230469 313.757812 1136.230469 332.492188 1119.0625 346.625 C 1148.632812 395.839844 1122.949219 445.253906 1079.902344 464.726562 C 1046.738281 479.722656 1013.511719 479.320312 980.757812 463.492188 C 975.089844 460.75 971.957031 461.652344 967.394531 465.660156 C 959.183594 472.875 950.761719 480.675781 941.011719 485.113281 C 928.117188 490.976562 913.855469 493.839844 900.183594 497.996094 Z M 900.183594 497.996094 " fill-opacity="1" fill-rule="nonzero"/></g><g clip-path="url(#b578f3bece)"><path fill="#f5e7eb" d="M 1141.671875 478.457031 C 1136.113281 478.457031 1130.558594 478.457031 1125.003906 478.457031 C 1111.714844 475.148438 1097.875 473.242188 1085.269531 468.222656 C 1066.261719 460.652344 1051.339844 447.234375 1040.90625 428.738281 C 1017.933594 438.339844 994.710938 441.707031 970.570312 437.269531 C 930.078125 429.824219 900.203125 403.652344 892.59375 368.113281 C 888.859375 350.675781 892.027344 333.839844 899.6875 317.972656 C 859.984375 295.746094 853.785156 288.144531 841.648438 247.191406 C 841.648438 241.636719 841.648438 236.078125 841.648438 230.523438 C 842.128906 230.066406 842.941406 229.667969 843.035156 229.144531 C 849.855469 190.472656 875.152344 169.191406 910.902344 159.03125 C 924.316406 155.214844 938.707031 154.824219 952.601562 152.878906 C 962.757812 113.894531 989.441406 92.015625 1027.992188 83.738281 C 1066.386719 75.492188 1100.683594 84.679688 1129.964844 111.21875 C 1153.734375 93.867188 1179.832031 86.058594 1208.507812 88.570312 C 1245.6875 91.835938 1276.015625 107.1875 1292.550781 142.261719 C 1297.832031 153.46875 1298.992188 166.617188 1302.15625 179.359375 C 1340.375 185.554688 1362.890625 198.042969 1379.285156 225.238281 C 1385.15625 234.980469 1387.652344 246.761719 1391.683594 257.609375 C 1391.683594 262.46875 1391.683594 267.328125 1391.683594 272.191406 C 1387.71875 294.21875 1377.71875 312.949219 1360.550781 327.082031 C 1390.121094 376.296875 1364.4375 425.714844 1321.390625 445.183594 C 1288.226562 460.183594 1255 459.777344 1222.246094 443.953125 C 1216.574219 441.207031 1213.445312 442.109375 1208.882812 446.117188 C 1200.671875 453.332031 1192.25 461.132812 1182.5 465.570312 C 1169.605469 471.433594 1155.34375 474.300781 1141.671875 478.457031 Z M 1141.671875 478.457031 " fill-opacity="1" fill-rule="nonzero"/></g><g clip-path="url(#4f8b80aaa3)"><path fill="#ffffff" d="M 1364.332031 402.949219 C 1358.777344 402.949219 1353.222656 402.949219 1347.664062 402.949219 C 1334.375 399.644531 1320.535156 397.734375 1307.933594 392.714844 C 1288.925781 385.144531 1274.003906 371.730469 1263.570312 353.230469 C 1240.59375 362.832031 1217.375 366.199219 1193.230469 361.765625 C 1152.742188 354.316406 1122.867188 328.144531 1115.257812 292.605469 C 1111.523438 275.171875 1114.691406 258.332031 1122.347656 242.46875 C 1082.648438 220.238281 1076.449219 212.640625 1064.3125 171.6875 C 1064.3125 166.128906 1064.3125 160.574219 1064.3125 155.019531 C 1064.789062 154.558594 1065.605469 154.164062 1065.695312 153.636719 C 1072.519531 114.964844 1097.8125 93.683594 1133.566406 83.523438 C 1146.980469 79.710938 1161.371094 79.316406 1175.265625 77.371094 C 1185.417969 38.390625 1212.105469 16.507812 1250.65625 8.230469 C 1289.050781 -0.0117188 1323.347656 9.171875 1352.625 35.710938 C 1376.398438 18.363281 1402.496094 10.550781 1431.167969 13.066406 C 1468.351562 16.332031 1498.679688 31.683594 1515.214844 66.757812 C 1520.496094 77.960938 1521.652344 91.109375 1524.820312 103.851562 C 1563.039062 110.050781 1585.554688 122.535156 1601.949219 149.734375 C 1607.820312 159.476562 1610.316406 171.253906 1614.347656 182.101562 C 1614.347656 186.960938 1614.347656 191.824219 1614.347656 196.683594 C 1610.378906 218.710938 1600.382812 237.445312 1583.214844 251.578125 C 1612.785156 300.792969 1587.101562 350.207031 1544.050781 369.679688 C 1510.890625 384.675781 1477.664062 384.273438 1444.90625 368.445312 C 1439.238281 365.703125 1436.105469 366.601562 1431.546875 370.613281 C 1423.335938 377.828125 1414.914062 385.628906 1405.164062 390.0625 C 1392.269531 395.929688 1378.003906 398.792969 1364.332031 402.949219 Z M 1364.332031 402.949219 " fill-opacity="1" fill-rule="nonzero"/></g><g clip-path="url(#ab83e49ce5)"><path fill="#817197" d="M 1322.097656 523.332031 C 1316.539062 523.332031 1310.988281 523.332031 1305.429688 523.332031 C 1292.140625 520.027344 1278.300781 518.117188 1265.699219 513.097656 C 1246.691406 505.527344 1231.769531 492.113281 1221.332031 473.613281 C 1198.359375 483.214844 1175.140625 486.582031 1150.996094 482.144531 C 1110.507812 474.699219 1080.632812 448.527344 1073.023438 412.988281 C 1069.289062 395.554688 1072.457031 378.714844 1080.113281 362.847656 C 1040.414062 340.621094 1034.214844 333.019531 1022.078125 292.066406 C 1022.078125 286.511719 1022.078125 280.957031 1022.078125 275.398438 C 1022.554688 274.941406 1023.367188 274.542969 1023.460938 274.019531 C 1030.285156 235.347656 1055.578125 214.066406 1091.328125 203.90625 C 1104.746094 200.09375 1119.132812 199.699219 1133.03125 197.753906 C 1143.183594 158.769531 1169.871094 136.890625 1208.421875 128.613281 C 1246.8125 120.371094 1281.113281 129.554688 1310.390625 156.09375 C 1334.164062 138.742188 1360.257812 130.933594 1388.933594 133.449219 C 1426.117188 136.710938 1456.445312 152.0625 1472.980469 187.136719 C 1478.261719 198.34375 1479.417969 211.492188 1482.582031 224.234375 C 1520.804688 230.429688 1543.320312 242.917969 1559.710938 270.113281 C 1565.582031 279.859375 1568.078125 291.636719 1572.113281 302.484375 C 1572.113281 307.34375 1572.113281 312.207031 1572.113281 317.066406 C 1568.144531 339.09375 1558.148438 357.828125 1540.976562 371.957031 C 1570.550781 421.171875 1544.867188 470.589844 1501.816406 490.058594 C 1468.65625 505.058594 1435.429688 504.652344 1402.671875 488.828125 C 1397.003906 486.085938 1393.871094 486.984375 1389.3125 490.992188 C 1381.101562 498.207031 1372.679688 506.007812 1362.929688 510.445312 C 1350.035156 516.3125 1335.769531 519.175781 1322.097656 523.332031 Z M 1322.097656 523.332031 " fill-opacity="1" fill-rule="nonzero"/></g></svg>