<svg xmlns="http://www.w3.org/2000/svg" xmlns:xlink="http://www.w3.org/1999/xlink" width="2000" zoomAndPan="magnify" viewBox="0 0 1500 1499.999933" height="2000" preserveAspectRatio="xMidYMid meet" version="1.0"><defs><clipPath id="be99c74c64"><path d="M 291 294 L 1183 294 L 1183 1169 L 291 1169 Z M 291 294 " clip-rule="nonzero"/></clipPath><clipPath id="bbfd72f219"><path d="M 215.121094 386.839844 L 1063.269531 218.210938 L 1234.386719 1078.863281 L 386.238281 1247.492188 Z M 215.121094 386.839844 " clip-rule="nonzero"/></clipPath><clipPath id="26efdca1b8"><path d="M 215.121094 386.839844 L 1063.269531 218.210938 L 1234.386719 1078.863281 L 386.238281 1247.492188 Z M 215.121094 386.839844 " clip-rule="nonzero"/></clipPath><clipPath id="be2d508560"><path d="M 318 323 L 1138 323 L 1138 1144 L 318 1144 Z M 318 323 " clip-rule="nonzero"/></clipPath><clipPath id="b38e6cac35"><path d="M 215.121094 386.839844 L 1063.269531 218.210938 L 1234.386719 1078.863281 L 386.238281 1247.492188 Z M 215.121094 386.839844 " clip-rule="nonzero"/></clipPath><clipPath id="565e64c422"><path d="M 215.121094 386.839844 L 1063.269531 218.210938 L 1234.386719 1078.863281 L 386.238281 1247.492188 Z M 215.121094 386.839844 " clip-rule="nonzero"/></clipPath><clipPath id="a449d956cf"><path d="M 860 416 L 1044 416 L 1044 595 L 860 595 Z M 860 416 " clip-rule="nonzero"/></clipPath><clipPath id="98dc2160f7"><path d="M 215.121094 386.839844 L 1063.269531 218.210938 L 1234.386719 1078.863281 L 386.238281 1247.492188 Z M 215.121094 386.839844 " clip-rule="nonzero"/></clipPath><clipPath id="d0d0ed90d1"><path d="M 215.121094 386.839844 L 1063.269531 218.210938 L 1234.386719 1078.863281 L 386.238281 1247.492188 Z M 215.121094 386.839844 " clip-rule="nonzero"/></clipPath><clipPath id="176cddfa3a"><path d="M 759 642 L 890 642 L 890 776 L 759 776 Z M 759 642 " clip-rule="nonzero"/></clipPath><clipPath id="49cee1c2bc"><path d="M 215.121094 386.839844 L 1063.269531 218.210938 L 1234.386719 1078.863281 L 386.238281 1247.492188 Z M 215.121094 386.839844 " clip-rule="nonzero"/></clipPath><clipPath id="82c2dfb5e7"><path d="M 215.121094 386.839844 L 1063.269531 218.210938 L 1234.386719 1078.863281 L 386.238281 1247.492188 Z M 215.121094 386.839844 " clip-rule="nonzero"/></clipPath><clipPath id="e7ec94d9bd"><path d="M 917 470 L 989 470 L 989 544 L 917 544 Z M 917 470 " clip-rule="nonzero"/></clipPath><clipPath id="8e3509aae5"><path d="M 215.121094 386.839844 L 1063.269531 218.210938 L 1234.386719 1078.863281 L 386.238281 1247.492188 Z M 215.121094 386.839844 " clip-rule="nonzero"/></clipPath><clipPath id="d1109614c3"><path d="M 215.121094 386.839844 L 1063.269531 218.210938 L 1234.386719 1078.863281 L 386.238281 1247.492188 Z M 215.121094 386.839844 " clip-rule="nonzero"/></clipPath><clipPath id="b4c3283e0e"><path d="M 811 697 L 841 697 L 841 722 L 811 722 Z M 811 697 " clip-rule="nonzero"/></clipPath><clipPath id="8b01b8c83e"><path d="M 215.121094 386.839844 L 1063.269531 218.210938 L 1234.386719 1078.863281 L 386.238281 1247.492188 Z M 215.121094 386.839844 " clip-rule="nonzero"/></clipPath><clipPath id="189faed231"><path d="M 215.121094 386.839844 L 1063.269531 218.210938 L 1234.386719 1078.863281 L 386.238281 1247.492188 Z M 215.121094 386.839844 " clip-rule="nonzero"/></clipPath></defs><g clip-path="url(#be99c74c64)"><g clip-path="url(#bbfd72f219)"><g clip-path="url(#26efdca1b8)"><path fill="#a29fb8" d="M 714.363281 327.148438 C 657.03125 362.753906 628.828125 404.441406 614.21875 422.992188 C 601.40625 439.261719 541.5 537.324219 555.066406 647.160156 C 576.703125 822.316406 699.160156 887.183594 738.121094 907.816406 C 863.394531 974.144531 1025.804688 942.644531 1122.8125 845.484375 C 1145.140625 823.121094 1169.339844 791.976562 1179.65625 808.980469 C 1183.28125 814.949219 1187.078125 821.207031 1157.921875 893.511719 C 1122.558594 981.207031 1034.648438 1078.015625 948.863281 1117.84375 C 928.902344 1127.109375 836.445312 1178.226562 698.175781 1166.992188 C 616.855469 1160.382812 518.183594 1120.976562 450.21875 1063.449219 C 262.589844 904.628906 269.65625 677.644531 328.191406 555.425781 C 332.042969 547.378906 406.070312 352.601562 636.339844 303.152344 C 688.355469 291.980469 727.695312 294.222656 729.683594 295.082031 C 731.003906 295.652344 742.875 300.785156 735.996094 311.894531 C 734.578125 314.183594 716.148438 326.003906 714.367188 327.148438 Z M 714.363281 327.148438 " fill-opacity="1" fill-rule="evenodd"/></g></g></g><g clip-path="url(#be2d508560)"><g clip-path="url(#b38e6cac35)"><g clip-path="url(#565e64c422)"><path fill="#a29fb8" d="M 988.464844 953.917969 C 1100.894531 918.046875 1115.824219 876.558594 1129.691406 872.867188 C 1130.554688 872.640625 1139.660156 870.214844 1137.710938 880.648438 C 1136.988281 884.5 1134.484375 887.800781 1132.671875 891.273438 C 1062.878906 1024.902344 975.199219 1079.953125 908.144531 1107.925781 C 643.085938 1218.507812 454.460938 1036.304688 431.761719 1011.261719 C 341.820312 912.039062 328.667969 828.9375 321.390625 777.191406 C 319.847656 766.214844 311.792969 708.964844 327.800781 638.769531 C 378.003906 418.613281 570.828125 350.058594 572.039062 349.539062 C 594.058594 340.066406 648.3125 324.296875 649.644531 324.109375 C 664.957031 321.984375 666.234375 332.472656 653.855469 341.746094 C 646.429688 347.304688 614.738281 371.039062 579.125 430.382812 C 490.667969 577.789062 523.203125 755.03125 624.875 856.816406 C 787.382812 1019.5 970.390625 958.613281 988.464844 953.917969 Z M 988.464844 953.917969 " fill-opacity="1" fill-rule="evenodd"/></g></g></g><g clip-path="url(#a449d956cf)"><g clip-path="url(#98dc2160f7)"><g clip-path="url(#d0d0ed90d1)"><path fill="#a29fb8" d="M 984.210938 569.792969 C 983.796875 571.308594 979.007812 588.710938 979.007812 588.710938 C 978.261719 589.820312 972.539062 598.351562 962.804688 592.730469 C 953.910156 587.597656 938.582031 542.746094 886.074219 534.953125 C 868.695312 532.371094 868.503906 532.992188 865.3125 531.042969 C 858.566406 526.917969 856.515625 515.714844 870.484375 507.769531 C 875.277344 505.046875 893.054688 499.558594 906.507812 478.824219 C 924.144531 451.640625 919.476562 414.742188 935.859375 416.898438 C 948.910156 418.617188 946.03125 425.871094 971.191406 452.988281 C 1005.222656 489.664062 1049.269531 468.066406 1043.160156 493.367188 C 1040.574219 504.085938 1005.402344 507.289062 990.375 550.378906 C 988.535156 555.65625 988.664062 555.511719 984.210938 569.792969 Z M 984.210938 569.792969 " fill-opacity="1" fill-rule="evenodd"/></g></g></g><g clip-path="url(#176cddfa3a)"><g clip-path="url(#49cee1c2bc)"><g clip-path="url(#82c2dfb5e7)"><path fill="#a29fb8" d="M 782.363281 697.46875 C 784.023438 695.445312 794.078125 687.894531 799.65625 670.640625 C 802.15625 662.910156 800.457031 662.648438 802.738281 654.953125 C 806.070312 643.695312 813.714844 643.230469 815.078125 643.148438 C 815.46875 643.125 819.039062 639.835938 832.582031 658.316406 C 861.472656 697.734375 883.046875 675.222656 888.65625 691.539062 C 892.554688 702.894531 876.914062 710.171875 874.996094 711.550781 C 844.417969 733.492188 854.6875 771.085938 842.238281 775.230469 C 822.441406 781.820312 824.636719 739.347656 778.21875 730.917969 C 760.265625 727.65625 752.234375 721.675781 766.039062 709.566406 C 773.804688 702.753906 774.507812 703.949219 782.363281 697.46875 Z M 782.363281 697.46875 " fill-opacity="1" fill-rule="evenodd"/></g></g></g><g clip-path="url(#e7ec94d9bd)"><g clip-path="url(#8e3509aae5)"><g clip-path="url(#d1109614c3)"><path fill="#a29fb8" d="M 942.128906 531.605469 C 921.96875 518.339844 908.664062 516.984375 923.679688 498.085938 C 928.34375 492.21875 939.820312 472.144531 940.132812 471.851562 C 946.003906 466.300781 960.257812 478.007812 961.660156 479.160156 C 974.679688 489.851562 984.933594 489.363281 987.4375 496.378906 C 990.792969 505.773438 987.515625 505.628906 981.851562 513.722656 C 968.21875 533.195312 970.308594 534.351562 969.035156 535.964844 C 958.585938 549.195312 955.015625 542.542969 942.128906 531.605469 Z M 942.128906 531.605469 " fill-opacity="1" fill-rule="evenodd"/></g></g></g><g clip-path="url(#b4c3283e0e)"><g clip-path="url(#8b01b8c83e)"><g clip-path="url(#189faed231)"><path fill="#a29fb8" d="M 818.734375 699.355469 C 821.238281 699.667969 823.472656 696.835938 825.976562 697.148438 C 848.625 699.96875 837.429688 715.167969 836.382812 716.589844 C 827.308594 728.902344 802.820312 717.941406 815.527344 702.417969 C 816.460938 701.273438 817.796875 700.5 818.734375 699.355469 Z M 818.734375 699.355469 " fill-opacity="1" fill-rule="evenodd"/></g></g></g></svg>