<svg xmlns="http://www.w3.org/2000/svg" xmlns:xlink="http://www.w3.org/1999/xlink" width="2000" zoomAndPan="magnify" viewBox="0 0 1500 1499.999933" height="2000" preserveAspectRatio="xMidYMid meet" version="1.0"><defs><clipPath id="2639b08043"><path d="M 205 205 L 1298.660156 205 L 1298.660156 1298.660156 L 205 1298.660156 Z M 205 205 " clip-rule="nonzero"/></clipPath></defs><g clip-path="url(#2639b08043)"><path fill="#a29fb8" d="M 1086.886719 215.734375 C 1073.21875 202.066406 1049.011719 202.066406 1035.34375 215.734375 L 293.011719 958.101562 C 292.976562 958.136719 292.945312 958.167969 292.910156 958.203125 L 292.800781 958.3125 C 292.742188 958.371094 292.726562 958.453125 292.667969 958.511719 C 289.707031 961.503906 287.488281 965.113281 285.707031 968.992188 C 285.273438 969.9375 284.859375 970.832031 284.511719 971.804688 C 284.199219 972.671875 283.6875 973.433594 283.4375 974.332031 L 206.371094 1252.375 C 202.882812 1265.046875 206.445312 1278.609375 215.734375 1287.898438 C 222.675781 1294.839844 231.964844 1298.578125 241.507812 1298.578125 C 244.746094 1298.578125 248.019531 1298.152344 251.261719 1297.261719 L 529.304688 1220.195312 C 530.203125 1219.945312 530.964844 1219.433594 531.832031 1219.121094 C 532.800781 1218.769531 533.699219 1218.363281 534.640625 1217.929688 C 538.519531 1216.144531 542.132812 1213.925781 545.121094 1210.964844 C 545.183594 1210.910156 545.261719 1210.894531 545.324219 1210.832031 L 545.429688 1210.722656 C 545.46875 1210.6875 545.5 1210.65625 545.535156 1210.621094 L 1287.898438 468.292969 C 1294.734375 461.457031 1298.578125 452.183594 1298.578125 442.519531 C 1298.578125 432.855469 1294.734375 423.582031 1287.898438 416.746094 Z M 936.777344 417.390625 L 1086.242188 566.855469 L 519.550781 1133.519531 L 370.117188 984.082031 Z M 293.832031 1209.800781 L 337.011719 1054.066406 L 449.566406 1166.621094 Z M 1137.789062 515.3125 L 988.324219 365.847656 L 1061.113281 293.050781 L 1210.585938 442.519531 Z M 1137.789062 515.3125 " fill-opacity="1" fill-rule="nonzero"/></g></svg>