<svg xmlns="http://www.w3.org/2000/svg" xmlns:xlink="http://www.w3.org/1999/xlink" width="1365" zoomAndPan="magnify" viewBox="0 0 1023.75 371.999986" height="496" preserveAspectRatio="xMidYMid meet" version="1.0"><defs><clipPath id="6b63c7becf"><path d="M 0 3 L 373.410156 3 L 373.410156 273.730469 L 0 273.730469 Z M 0 3 " clip-rule="nonzero"/></clipPath><clipPath id="e8c72890aa"><path d="M 215.425781 47 L 588.835938 47 L 588.835938 317 L 215.425781 317 Z M 215.425781 47 " clip-rule="nonzero"/></clipPath><clipPath id="cf388e4aad"><path d="M 55.859375 101 L 429.269531 101 L 429.269531 371.382812 L 55.859375 371.382812 Z M 55.859375 101 " clip-rule="nonzero"/></clipPath><clipPath id="9d4550c780"><path d="M 477.796875 34 L 851.207031 34 L 851.207031 304.359375 L 477.796875 304.359375 Z M 477.796875 34 " clip-rule="nonzero"/></clipPath><clipPath id="a50955b7ce"><path d="M 649.660156 3 L 1023.066406 3 L 1023.066406 273.730469 L 649.660156 273.730469 Z M 649.660156 3 " clip-rule="nonzero"/></clipPath><clipPath id="2fc314a8f8"><path d="M 613.519531 101 L 986.929688 101 L 986.929688 371.382812 L 613.519531 371.382812 Z M 613.519531 101 " clip-rule="nonzero"/></clipPath></defs><g clip-path="url(#6b63c7becf)"><path fill="#f5e7eb" d="M 203.710938 273.554688 C 199.9375 273.554688 196.167969 273.554688 192.398438 273.554688 C 183.378906 271.308594 173.984375 270.015625 165.429688 266.609375 C 152.527344 261.46875 142.398438 252.363281 135.316406 239.804688 C 119.722656 246.324219 103.960938 248.609375 87.574219 245.597656 C 60.089844 240.542969 39.8125 222.78125 34.648438 198.65625 C 32.113281 186.824219 34.261719 175.394531 39.460938 164.625 C 12.511719 149.535156 8.304688 144.378906 0.0664062 116.582031 C 0.0664062 112.808594 0.0664062 109.039062 0.0664062 105.265625 C 0.390625 104.957031 0.945312 104.6875 1.007812 104.328125 C 5.636719 78.078125 22.808594 63.636719 47.074219 56.738281 C 56.179688 54.148438 65.945312 53.882812 75.378906 52.5625 C 82.269531 26.101562 100.382812 11.25 126.550781 5.632812 C 152.609375 0.0351562 175.890625 6.269531 195.765625 24.285156 C 211.898438 12.507812 229.613281 7.207031 249.078125 8.914062 C 274.316406 11.128906 294.902344 21.550781 306.125 45.355469 C 309.710938 52.964844 310.496094 61.886719 312.644531 70.535156 C 338.585938 74.742188 353.867188 83.21875 364.996094 101.679688 C 368.980469 108.292969 370.675781 116.285156 373.414062 123.648438 C 373.414062 126.949219 373.414062 130.25 373.414062 133.546875 C 370.71875 148.5 363.933594 161.214844 352.28125 170.808594 C 372.351562 204.210938 354.917969 237.753906 325.699219 250.96875 C 303.1875 261.152344 280.636719 260.875 258.402344 250.132812 C 254.554688 248.273438 252.429688 248.882812 249.332031 251.605469 C 243.757812 256.5 238.042969 261.796875 231.425781 264.808594 C 222.671875 268.789062 212.992188 270.734375 203.710938 273.554688 Z M 203.710938 273.554688 " fill-opacity="1" fill-rule="nonzero"/></g><g clip-path="url(#e8c72890aa)"><path fill="#817197" d="M 419.136719 316.9375 C 415.367188 316.9375 411.597656 316.9375 407.824219 316.9375 C 398.804688 314.695312 389.410156 313.398438 380.855469 309.992188 C 367.953125 304.851562 357.824219 295.746094 350.742188 283.191406 C 335.148438 289.707031 319.386719 291.992188 303 288.980469 C 275.515625 283.925781 255.238281 266.164062 250.074219 242.039062 C 247.539062 230.207031 249.6875 218.777344 254.886719 208.007812 C 227.9375 192.917969 223.730469 187.761719 215.492188 159.964844 C 215.492188 156.191406 215.492188 152.421875 215.492188 148.648438 C 215.816406 148.339844 216.371094 148.070312 216.433594 147.710938 C 221.0625 121.464844 238.234375 107.019531 262.5 100.121094 C 271.605469 97.535156 281.371094 97.265625 290.804688 95.945312 C 297.695312 69.484375 315.808594 54.632812 341.976562 49.015625 C 368.039062 43.421875 391.316406 49.65625 411.191406 67.667969 C 427.328125 55.890625 445.039062 50.589844 464.503906 52.296875 C 489.742188 54.511719 510.328125 64.933594 521.550781 88.742188 C 525.136719 96.347656 525.921875 105.273438 528.070312 113.921875 C 554.011719 118.125 569.292969 126.601562 580.421875 145.0625 C 584.40625 151.675781 586.101562 159.671875 588.839844 167.03125 C 588.839844 170.332031 588.839844 173.632812 588.839844 176.933594 C 586.144531 191.882812 579.359375 204.597656 567.707031 214.191406 C 587.777344 247.597656 570.34375 281.136719 541.125 294.355469 C 518.613281 304.535156 496.0625 304.257812 473.828125 293.519531 C 469.980469 291.65625 467.855469 292.265625 464.757812 294.988281 C 459.1875 299.882812 453.46875 305.179688 446.851562 308.191406 C 438.097656 312.171875 428.417969 314.117188 419.136719 316.9375 Z M 419.136719 316.9375 " fill-opacity="1" fill-rule="nonzero"/></g><g clip-path="url(#cf388e4aad)"><path fill="#ffffff" d="M 259.574219 371.207031 C 255.800781 371.207031 252.03125 371.207031 248.257812 371.207031 C 239.238281 368.960938 229.84375 367.667969 221.289062 364.261719 C 208.386719 359.121094 198.257812 350.015625 191.175781 337.457031 C 175.582031 343.976562 159.820312 346.261719 143.433594 343.25 C 115.949219 338.195312 95.671875 320.433594 90.507812 296.308594 C 87.972656 284.476562 90.125 273.046875 95.320312 262.277344 C 68.375 247.1875 64.167969 242.03125 55.929688 214.234375 C 55.929688 210.460938 55.929688 206.691406 55.929688 202.917969 C 56.253906 202.609375 56.804688 202.339844 56.867188 201.980469 C 61.5 175.730469 78.667969 161.289062 102.933594 154.390625 C 112.039062 151.800781 121.808594 151.535156 131.238281 150.214844 C 138.132812 123.753906 156.246094 108.902344 182.410156 103.285156 C 208.472656 97.691406 231.753906 103.921875 251.625 121.9375 C 267.761719 110.160156 285.476562 104.859375 304.9375 106.566406 C 330.175781 108.78125 350.761719 119.203125 361.984375 143.011719 C 365.570312 150.617188 366.355469 159.542969 368.503906 168.1875 C 394.445312 172.394531 409.730469 180.871094 420.855469 199.332031 C 424.84375 205.945312 426.535156 213.9375 429.273438 221.300781 C 429.273438 224.601562 429.273438 227.902344 429.273438 231.199219 C 426.582031 246.152344 419.792969 258.867188 408.140625 268.460938 C 428.210938 301.863281 410.78125 335.40625 381.558594 348.621094 C 359.050781 358.804688 336.496094 358.527344 314.261719 347.785156 C 310.414062 345.925781 308.289062 346.535156 305.195312 349.257812 C 299.621094 354.152344 293.90625 359.449219 287.285156 362.460938 C 278.535156 366.441406 268.851562 368.386719 259.574219 371.207031 Z M 259.574219 371.207031 " fill-opacity="1" fill-rule="nonzero"/></g><g clip-path="url(#9d4550c780)"><path fill="#f5e7eb" d="M 681.507812 304.183594 C 677.738281 304.183594 673.96875 304.183594 670.195312 304.183594 C 661.175781 301.941406 651.78125 300.644531 643.226562 297.238281 C 630.324219 292.101562 620.195312 282.992188 613.113281 270.4375 C 597.519531 276.953125 581.757812 279.242188 565.371094 276.230469 C 537.886719 271.175781 517.609375 253.410156 512.445312 229.289062 C 509.910156 217.453125 512.058594 206.023438 517.257812 195.253906 C 490.3125 180.167969 486.101562 175.007812 477.867188 147.210938 C 477.867188 143.4375 477.867188 139.667969 477.867188 135.898438 C 478.191406 135.585938 478.742188 135.316406 478.804688 134.960938 C 483.433594 108.710938 500.605469 94.265625 524.871094 87.371094 C 533.976562 84.78125 543.746094 84.515625 553.175781 83.191406 C 560.070312 56.734375 578.183594 41.882812 604.347656 36.261719 C 630.410156 30.667969 653.691406 36.902344 673.5625 54.914062 C 689.699219 43.140625 707.410156 37.835938 726.875 39.542969 C 752.113281 41.761719 772.699219 52.179688 783.921875 75.988281 C 787.507812 83.59375 788.292969 92.519531 790.441406 101.167969 C 816.382812 105.375 831.667969 113.847656 842.792969 132.308594 C 846.777344 138.921875 848.472656 146.917969 851.210938 154.28125 C 851.210938 157.578125 851.210938 160.878906 851.210938 164.179688 C 848.519531 179.128906 841.730469 191.84375 830.078125 201.4375 C 850.148438 234.84375 832.714844 268.386719 803.496094 281.601562 C 780.988281 291.78125 758.433594 291.507812 736.199219 280.765625 C 732.351562 278.902344 730.226562 279.515625 727.128906 282.234375 C 721.558594 287.132812 715.84375 292.425781 709.222656 295.4375 C 700.472656 299.417969 690.789062 301.363281 681.507812 304.183594 Z M 681.507812 304.183594 " fill-opacity="1" fill-rule="nonzero"/></g><g clip-path="url(#a50955b7ce)"><path fill="#ffffff" d="M 853.371094 273.554688 C 849.597656 273.554688 845.828125 273.554688 842.054688 273.554688 C 833.035156 271.308594 823.640625 270.015625 815.085938 266.609375 C 802.1875 261.46875 792.054688 252.363281 784.972656 239.804688 C 769.378906 246.324219 753.617188 248.609375 737.230469 245.597656 C 709.75 240.542969 689.46875 222.78125 684.304688 198.65625 C 681.769531 186.824219 683.921875 175.394531 689.117188 164.625 C 662.171875 149.535156 657.964844 144.378906 649.726562 116.582031 C 649.726562 112.808594 649.726562 109.039062 649.726562 105.265625 C 650.050781 104.957031 650.601562 104.6875 650.664062 104.328125 C 655.296875 78.078125 672.464844 63.636719 696.730469 56.738281 C 705.835938 54.148438 715.605469 53.882812 725.035156 52.5625 C 731.929688 26.101562 750.042969 11.25 776.207031 5.632812 C 802.269531 0.0351562 825.550781 6.269531 845.421875 24.285156 C 861.558594 12.507812 879.273438 7.207031 898.734375 8.914062 C 923.972656 11.128906 944.558594 21.550781 955.78125 45.355469 C 959.367188 52.964844 960.152344 61.886719 962.300781 70.535156 C 988.242188 74.742188 1003.527344 83.21875 1014.652344 101.679688 C 1018.640625 108.292969 1020.332031 116.285156 1023.070312 123.648438 C 1023.070312 126.949219 1023.070312 130.25 1023.070312 133.546875 C 1020.378906 148.5 1013.589844 161.214844 1001.9375 170.808594 C 1022.011719 204.210938 1004.578125 237.753906 975.355469 250.96875 C 952.847656 261.152344 930.292969 260.875 908.058594 250.132812 C 904.214844 248.273438 902.085938 248.882812 898.992188 251.605469 C 893.417969 256.5 887.703125 261.796875 881.082031 264.808594 C 872.332031 268.789062 862.648438 270.734375 853.371094 273.554688 Z M 853.371094 273.554688 " fill-opacity="1" fill-rule="nonzero"/></g><g clip-path="url(#2fc314a8f8)"><path fill="#817197" d="M 817.230469 371.207031 C 813.457031 371.207031 809.6875 371.207031 805.917969 371.207031 C 796.898438 368.960938 787.503906 367.667969 778.949219 364.261719 C 766.046875 359.121094 755.917969 350.015625 748.835938 337.457031 C 733.242188 343.976562 717.480469 346.261719 701.09375 343.25 C 673.609375 338.195312 653.332031 320.433594 648.167969 296.308594 C 645.632812 284.476562 647.78125 273.046875 652.980469 262.277344 C 626.03125 247.1875 621.824219 242.03125 613.585938 214.234375 C 613.585938 210.460938 613.585938 206.691406 613.585938 202.917969 C 613.910156 202.609375 614.464844 202.339844 614.527344 201.980469 C 619.15625 175.730469 636.328125 161.289062 660.59375 154.390625 C 669.699219 151.800781 679.464844 151.535156 688.898438 150.214844 C 695.789062 123.753906 713.902344 108.902344 740.070312 103.285156 C 766.128906 97.691406 789.410156 103.921875 809.285156 121.9375 C 825.417969 110.160156 843.132812 104.859375 862.597656 106.566406 C 887.835938 108.78125 908.421875 119.203125 919.644531 143.011719 C 923.230469 150.617188 924.015625 159.542969 926.164062 168.1875 C 952.105469 172.394531 967.386719 180.871094 978.515625 199.332031 C 982.5 205.945312 984.195312 213.9375 986.933594 221.300781 C 986.933594 224.601562 986.933594 227.902344 986.933594 231.199219 C 984.238281 246.152344 977.453125 258.867188 965.800781 268.460938 C 985.871094 301.863281 968.4375 335.40625 939.21875 348.621094 C 916.707031 358.804688 894.15625 358.527344 871.921875 347.785156 C 868.074219 345.925781 865.949219 346.535156 862.851562 349.257812 C 857.28125 354.152344 851.5625 359.449219 844.945312 362.460938 C 836.191406 366.441406 826.511719 368.386719 817.230469 371.207031 Z M 817.230469 371.207031 " fill-opacity="1" fill-rule="nonzero"/></g></svg>