<svg xmlns="http://www.w3.org/2000/svg" xmlns:xlink="http://www.w3.org/1999/xlink" width="786" zoomAndPan="magnify" viewBox="0 0 589.5 371.999986" height="496" preserveAspectRatio="xMidYMid meet" version="1.0"><defs><clipPath id="137e9150ce"><path d="M 0 3 L 373.183594 3 L 373.183594 273.675781 L 0 273.675781 Z M 0 3 " clip-rule="nonzero"/></clipPath><clipPath id="bd3ed4a4a6"><path d="M 215.296875 47 L 588.480469 47 L 588.480469 317 L 215.296875 317 Z M 215.296875 47 " clip-rule="nonzero"/></clipPath><clipPath id="6aa47880f1"><path d="M 55.828125 101 L 429.011719 101 L 429.011719 371.269531 L 55.828125 371.269531 Z M 55.828125 101 " clip-rule="nonzero"/></clipPath></defs><g clip-path="url(#137e9150ce)"><path fill="#f5e7eb" d="M 203.589844 273.5 C 199.816406 273.5 196.050781 273.5 192.28125 273.5 C 183.265625 271.257812 173.878906 269.964844 165.328125 266.558594 C 152.433594 261.421875 142.3125 252.324219 135.234375 239.773438 C 119.648438 246.289062 103.898438 248.570312 87.519531 245.5625 C 60.054688 240.511719 39.789062 222.757812 34.625 198.648438 C 32.09375 186.820312 34.242188 175.398438 39.4375 164.636719 C 12.503906 149.558594 8.300781 144.402344 0.0664062 116.621094 C 0.0664062 112.851562 0.0664062 109.082031 0.0664062 105.316406 C 0.390625 105.003906 0.941406 104.734375 1.007812 104.378906 C 5.632812 78.144531 22.792969 63.707031 47.046875 56.816406 C 56.144531 54.230469 65.90625 53.964844 75.332031 52.644531 C 82.222656 26.199219 100.324219 11.355469 126.472656 5.742188 C 152.519531 0.148438 175.785156 6.378906 195.648438 24.382812 C 211.773438 12.613281 229.476562 7.316406 248.925781 9.019531 C 274.148438 11.234375 294.722656 21.648438 305.941406 45.441406 C 309.523438 53.042969 310.308594 61.964844 312.453125 70.605469 C 338.378906 74.808594 353.65625 83.28125 364.773438 101.730469 C 368.757812 108.339844 370.453125 116.328125 373.1875 123.6875 C 373.1875 126.984375 373.1875 130.28125 373.1875 133.578125 C 370.496094 148.523438 363.714844 161.230469 352.066406 170.816406 C 372.125 204.203125 354.703125 237.722656 325.5 250.929688 C 303.003906 261.105469 280.46875 260.832031 258.246094 250.097656 C 254.402344 248.234375 252.277344 248.84375 249.183594 251.566406 C 243.613281 256.457031 237.902344 261.75 231.285156 264.761719 C 222.539062 268.738281 212.863281 270.683594 203.589844 273.5 Z M 203.589844 273.5 " fill-opacity="1" fill-rule="nonzero"/></g><g clip-path="url(#bd3ed4a4a6)"><path fill="#817197" d="M 418.882812 316.859375 C 415.113281 316.859375 411.347656 316.859375 407.578125 316.859375 C 398.5625 314.617188 389.175781 313.320312 380.625 309.917969 C 367.730469 304.78125 357.609375 295.679688 350.53125 283.132812 C 334.945312 289.644531 319.195312 291.929688 302.816406 288.917969 C 275.351562 283.867188 255.085938 266.113281 249.921875 242.007812 C 247.390625 230.179688 249.539062 218.757812 254.734375 207.992188 C 227.800781 192.914062 223.597656 187.761719 215.363281 159.980469 C 215.363281 156.210938 215.363281 152.441406 215.363281 148.671875 C 215.6875 148.363281 216.238281 148.09375 216.300781 147.734375 C 220.929688 121.5 238.089844 107.066406 262.339844 100.171875 C 271.441406 97.585938 281.203125 97.320312 290.628906 96 C 297.515625 69.554688 315.621094 54.714844 341.769531 49.097656 C 367.816406 43.507812 391.082031 49.738281 410.945312 67.738281 C 427.070312 55.96875 444.773438 50.671875 464.222656 52.378906 C 489.445312 54.59375 510.019531 65.007812 521.238281 88.800781 C 524.820312 96.402344 525.605469 105.320312 527.75 113.964844 C 553.675781 118.167969 568.949219 126.636719 580.070312 145.085938 C 584.054688 151.695312 585.746094 159.6875 588.484375 167.042969 C 588.484375 170.34375 588.484375 173.640625 588.484375 176.9375 C 585.792969 191.878906 579.007812 204.585938 567.363281 214.171875 C 587.421875 247.558594 570 281.082031 540.796875 294.289062 C 518.300781 304.464844 495.765625 304.1875 473.542969 293.453125 C 469.699219 291.589844 467.574219 292.203125 464.480469 294.921875 C 458.910156 299.816406 453.195312 305.109375 446.582031 308.117188 C 437.835938 312.09375 428.160156 314.039062 418.882812 316.859375 Z M 418.882812 316.859375 " fill-opacity="1" fill-rule="nonzero"/></g><g clip-path="url(#6aa47880f1)"><path fill="#ffffff" d="M 259.414062 371.09375 C 255.644531 371.09375 251.878906 371.09375 248.109375 371.09375 C 239.09375 368.851562 229.707031 367.558594 221.15625 364.152344 C 208.261719 359.015625 198.140625 349.917969 191.0625 337.367188 C 175.476562 343.882812 159.726562 346.164062 143.347656 343.15625 C 115.882812 338.105469 95.617188 320.351562 90.453125 296.242188 C 87.921875 284.414062 90.070312 272.992188 95.265625 262.230469 C 68.332031 247.152344 64.128906 241.996094 55.894531 214.214844 C 55.894531 210.445312 55.894531 206.675781 55.894531 202.910156 C 56.21875 202.597656 56.769531 202.328125 56.832031 201.972656 C 61.460938 175.738281 78.621094 161.300781 102.871094 154.410156 C 111.972656 151.824219 121.734375 151.558594 131.160156 150.238281 C 138.046875 123.792969 156.152344 108.949219 182.300781 103.335938 C 208.347656 97.742188 231.613281 103.972656 251.472656 121.976562 C 267.601562 110.207031 285.300781 104.910156 304.753906 106.613281 C 329.976562 108.828125 350.550781 119.242188 361.765625 143.035156 C 365.351562 150.636719 366.136719 159.558594 368.28125 168.199219 C 394.207031 172.402344 409.480469 180.875 420.601562 199.324219 C 424.585938 205.933594 426.277344 213.921875 429.015625 221.28125 C 429.015625 224.578125 429.015625 227.875 429.015625 231.171875 C 426.324219 246.117188 419.539062 258.824219 407.894531 268.410156 C 427.953125 301.796875 410.53125 335.316406 381.328125 348.523438 C 358.832031 358.699219 336.292969 358.425781 314.074219 347.6875 C 310.230469 345.828125 308.101562 346.4375 305.007812 349.160156 C 299.441406 354.050781 293.726562 359.34375 287.113281 362.355469 C 278.367188 366.332031 268.691406 368.277344 259.414062 371.09375 Z M 259.414062 371.09375 " fill-opacity="1" fill-rule="nonzero"/></g></svg>