<svg xmlns="http://www.w3.org/2000/svg" xmlns:xlink="http://www.w3.org/1999/xlink" width="728" zoomAndPan="magnify" viewBox="0 0 546 344.250003" height="459" preserveAspectRatio="xMidYMid meet" version="1.0"><defs><clipPath id="4487b4217f"><path d="M 0.59375 34 L 373.28125 34 L 373.28125 303.726562 L 0.59375 303.726562 Z M 0.59375 34 " clip-rule="nonzero"/></clipPath><clipPath id="ae0e496799"><path d="M 172.121094 3 L 544.808594 3 L 544.808594 273 L 172.121094 273 Z M 172.121094 3 " clip-rule="nonzero"/></clipPath><clipPath id="a7d987747a"><path d="M 137.644531 74 L 510.332031 74 L 510.332031 343.5 L 137.644531 343.5 Z M 137.644531 74 " clip-rule="nonzero"/></clipPath></defs><g clip-path="url(#4487b4217f)"><path fill="#f5e7eb" d="M 203.910156 303.550781 C 200.144531 303.550781 196.382812 303.550781 192.621094 303.550781 C 183.617188 301.3125 174.242188 300.019531 165.703125 296.617188 C 152.828125 291.492188 142.71875 282.402344 135.648438 269.871094 C 120.082031 276.375 104.351562 278.65625 87.996094 275.648438 C 60.566406 270.605469 40.328125 252.875 35.175781 228.800781 C 32.644531 216.988281 34.789062 205.582031 39.976562 194.832031 C 13.082031 179.773438 8.882812 174.625 0.660156 146.882812 C 0.660156 143.117188 0.660156 139.351562 0.660156 135.589844 C 0.984375 135.277344 1.535156 135.007812 1.597656 134.652344 C 6.21875 108.453125 23.355469 94.039062 47.574219 87.15625 C 56.664062 84.570312 66.414062 84.304688 75.828125 82.988281 C 82.707031 56.578125 100.785156 41.753906 126.898438 36.148438 C 152.910156 30.5625 176.144531 36.785156 195.980469 54.765625 C 212.085938 43.011719 229.765625 37.71875 249.191406 39.421875 C 274.378906 41.632812 294.925781 52.035156 306.128906 75.796875 C 309.703125 83.386719 310.488281 92.296875 312.632812 100.925781 C 338.523438 105.125 353.777344 113.585938 364.882812 132.007812 C 368.863281 138.609375 370.554688 146.589844 373.285156 153.9375 C 373.285156 157.230469 373.285156 160.523438 373.285156 163.816406 C 370.597656 178.738281 363.824219 191.429688 352.191406 201.003906 C 372.226562 234.34375 354.828125 267.820312 325.664062 281.011719 C 303.195312 291.171875 280.6875 290.898438 258.496094 280.179688 C 254.65625 278.320312 252.535156 278.929688 249.445312 281.644531 C 243.882812 286.53125 238.179688 291.816406 231.570312 294.824219 C 222.835938 298.796875 213.171875 300.738281 203.910156 303.550781 Z M 203.910156 303.550781 " fill-opacity="1" fill-rule="nonzero"/></g><g clip-path="url(#ae0e496799)"><path fill="#ffffff" d="M 375.441406 272.980469 C 371.675781 272.980469 367.914062 272.980469 364.148438 272.980469 C 355.144531 270.742188 345.769531 269.449219 337.230469 266.046875 C 324.355469 260.917969 314.246094 251.832031 307.175781 239.296875 C 291.613281 245.804688 275.882812 248.085938 259.527344 245.078125 C 232.09375 240.035156 211.855469 222.304688 206.703125 198.230469 C 204.171875 186.417969 206.316406 175.011719 211.507812 164.261719 C 184.609375 149.203125 180.410156 144.054688 172.1875 116.308594 C 172.1875 112.546875 172.1875 108.78125 172.1875 105.019531 C 172.511719 104.707031 173.0625 104.4375 173.125 104.082031 C 177.75 77.882812 194.882812 63.464844 219.105469 56.582031 C 228.191406 54 237.941406 53.734375 247.355469 52.414062 C 254.234375 26.007812 272.3125 11.183594 298.429688 5.574219 C 324.4375 -0.0078125 347.671875 6.214844 367.507812 24.191406 C 383.613281 12.4375 401.292969 7.148438 420.71875 8.851562 C 445.90625 11.0625 466.453125 21.464844 477.65625 45.222656 C 481.234375 52.816406 482.015625 61.722656 484.160156 70.355469 C 510.054688 74.554688 525.308594 83.011719 536.414062 101.4375 C 540.390625 108.039062 542.082031 116.015625 544.8125 123.367188 C 544.8125 126.660156 544.8125 129.953125 544.8125 133.246094 C 542.125 148.167969 535.351562 160.859375 523.722656 170.433594 C 543.753906 203.773438 526.355469 237.25 497.191406 250.441406 C 474.726562 260.601562 452.214844 260.328125 430.023438 249.605469 C 426.183594 247.746094 424.0625 248.359375 420.972656 251.074219 C 415.410156 255.960938 409.707031 261.246094 403.101562 264.25 C 394.363281 268.222656 384.703125 270.164062 375.441406 272.980469 Z M 375.441406 272.980469 " fill-opacity="1" fill-rule="nonzero"/></g><g clip-path="url(#a7d987747a)"><path fill="#817197" d="M 340.960938 343.398438 C 337.195312 343.398438 333.433594 343.398438 329.671875 343.398438 C 320.667969 341.15625 311.292969 339.863281 302.753906 336.464844 C 289.878906 331.335938 279.765625 322.246094 272.699219 309.714844 C 257.132812 316.21875 241.402344 318.5 225.046875 315.496094 C 197.617188 310.449219 177.378906 292.722656 172.226562 268.644531 C 169.695312 256.832031 171.839844 245.425781 177.027344 234.675781 C 150.132812 219.617188 145.933594 214.46875 137.710938 186.726562 C 137.710938 182.960938 137.710938 179.199219 137.710938 175.433594 C 138.035156 175.125 138.585938 174.855469 138.648438 174.5 C 143.269531 148.300781 160.40625 133.882812 184.625 127 C 193.714844 124.417969 203.464844 124.152344 212.875 122.832031 C 219.757812 96.421875 237.832031 81.601562 263.949219 75.992188 C 289.960938 70.410156 313.195312 76.628906 333.03125 94.609375 C 349.136719 82.855469 366.816406 77.5625 386.242188 79.269531 C 411.429688 81.480469 431.976562 91.878906 443.179688 115.640625 C 446.753906 123.230469 447.539062 132.140625 449.683594 140.773438 C 475.574219 144.96875 490.828125 153.429688 501.933594 171.855469 C 505.914062 178.453125 507.605469 186.433594 510.335938 193.78125 C 510.335938 197.074219 510.335938 200.367188 510.335938 203.660156 C 507.648438 218.585938 500.875 231.273438 489.242188 240.847656 C 509.277344 274.191406 491.878906 307.667969 462.714844 320.859375 C 440.246094 331.019531 417.738281 330.742188 395.546875 320.023438 C 391.707031 318.164062 389.585938 318.773438 386.496094 321.488281 C 380.933594 326.378906 375.230469 331.664062 368.621094 334.667969 C 359.886719 338.640625 350.222656 340.582031 340.960938 343.398438 Z M 340.960938 343.398438 " fill-opacity="1" fill-rule="nonzero"/></g></svg>